<svg width="400" height="300" viewBox="0 0 400 300" xmlns="http://www.w3.org/2000/svg">
  <rect width="400" height="300" fill="#e0f2fe"/>
  <!-- Glass of water -->
  <path d="M 160 100 L 170 220 C 170 230 180 240 200 240 C 220 240 230 230 230 220 L 240 100 Z" fill="none" stroke="#0ea5e9" stroke-width="8"/>
  <path d="M 165 150 L 170 220 C 170 230 180 240 200 240 C 220 240 230 230 235 150 Z" fill="#38bdf8"/>
  <!-- Droplet -->
  <path d="M200 40 C200 40 180 70 180 85 C180 100 220 100 220 85 C220 70 200 40 200 40 Z" fill="#38bdf8"/>
  <!-- Click ripples -->
  <circle cx="200" cy="85" r="25" fill="none" stroke="#0ea5e9" stroke-width="3" stroke-dasharray="5,5"/>
  <!-- Interactive Cursor/Click -->
  <polygon points="240,160 260,210 250,210 260,230 250,235 240,215 230,220" fill="white" stroke="#334155" stroke-width="3"/>
</svg>
